<svg xmlns="http://www.w3.org/2000/svg" viewBox="0 0 24 24"><defs><radialGradient id="g" cx="35%" cy="28%" r="65%"><stop offset="0%" stop-color="#CFD8DC"/><stop offset="40%" stop-color="#37474F"/><stop offset="100%" stop-color="#141C20"/></radialGradient><filter id="s"><feGaussianBlur stdDeviation="0.5"/></filter></defs><path d="M12 2L4 6v6c0 5 3.5 9.7 8 11 4.5-1.3 8-6 8-11V6z" fill="#000" opacity="0.35" filter="url(#s)" transform="translate(0.4,0.6)"/><path d="M12 2L4 6v6c0 5 3.5 9.7 8 11 4.5-1.3 8-6 8-11V6z" fill="url(#g)" stroke="#0A0F12" stroke-width="0.5"/><path d="M12 2L4 6v6c0 5 3.5 9.7 8 11" fill="url(#g)" fill-opacity="0.3" stroke="none"/><rect x="10" y="9" width="4" height="5" rx="0.5" fill="none" stroke="#FFF" stroke-width="0.8"/><path d="M10 11a2 2 0 0 1 4 0" fill="none" stroke="#FFF" stroke-width="0.8"/><circle cx="12" cy="12" r="0.6" fill="#FFF"/><ellipse cx="10" cy="6" rx="4" ry="2.5" fill="#FFF" fill-opacity="0.3"/></svg>
