<svg xmlns="http://www.w3.org/2000/svg" viewBox="0 0 24 24"><defs><radialGradient id="g" cx="35%" cy="28%" r="65%"><stop offset="0%" stop-color="#E8EAF6"/><stop offset="40%" stop-color="#1A237E"/><stop offset="100%" stop-color="#080C30"/></radialGradient><filter id="s"><feGaussianBlur stdDeviation="0.5"/></filter></defs><rect x="4" y="5" width="16" height="14" rx="1" fill="#000" opacity="0.35" filter="url(#s)" transform="translate(0.4,0.6)"/><rect x="4" y="5" width="16" height="14" rx="1" fill="url(#g)" stroke="#050820" stroke-width="0.5"/><path d="M7 8h2v2h-2zM10 8h2v2h-2zM13 8h2v2h-2zM16 8h2v2h-2zM7 11h2v2h-2zM10 11h2v2h-2zM13 11h2v2h-2zM16 11h2v2h-2zM7 14h2v2h-2zM10 14h2v2h-2zM13 14h2v2h-2zM16 14h2v2h-2z" fill="none" stroke="#9FA8DA" stroke-width="0.3"/><rect x="10" y="11" width="2" height="2" fill="#FF5252" fill-opacity="0.6"/><ellipse cx="10" cy="7" rx="4.5" ry="2" fill="#FFF" fill-opacity="0.25"/></svg>
