<svg xmlns="http://www.w3.org/2000/svg" viewBox="0 0 24 24"><defs><radialGradient id="g" cx="35%" cy="28%" r="65%"><stop offset="0%" stop-color="#FF9070"/><stop offset="100%" stop-color="#AA3300"/></radialGradient></defs><rect fill="#1A0A0A" x="1" y="1" width="22" height="22" rx="3"/><g fill="url(#g)" opacity="0.6"><rect x="3" y="3" width="4" height="4" rx="0.5"/><rect x="8" y="3" width="4" height="4" rx="0.5"/><rect x="13" y="3" width="4" height="4" rx="0.5"/><rect x="3" y="8" width="4" height="4" rx="0.5"/><rect x="8" y="8" width="4" height="4" rx="0.5"/><rect x="13" y="8" width="4" height="4" rx="0.5"/><rect x="18" y="3" width="4" height="4" rx="0.5"/><rect x="18" y="8" width="4" height="4" rx="0.5"/><rect x="3" y="13" width="4" height="4" rx="0.5"/><rect x="8" y="13" width="4" height="4" rx="0.5"/></g><text fill="#FFE040" x="14" y="16" font-size="3" font-family="monospace">NOP</text><rect fill="#FFE040" opacity="0.3" x="3" y="18" width="18" height="4" rx="0.5"/></svg>
