<svg xmlns="http://www.w3.org/2000/svg" viewBox="0 0 24 24"><defs><radialGradient id="g" cx="35%" cy="28%" r="65%"><stop offset="0%" stop-color="#FFE040"/><stop offset="100%" stop-color="#CC8800"/></radialGradient><radialGradient id="gf" cx="50%" cy="80%" r="60%"><stop offset="0%" stop-color="#FFE040"/><stop offset="40%" stop-color="#FF6600"/><stop offset="100%" stop-color="#AA0000"/></radialGradient></defs><rect fill="url(#g)" x="3" y="5" width="12" height="8" rx="2"/><rect x="3.5" y="5.5" width="11" height="3" rx="1" fill="white" opacity="0.25"/><text fill="white" x="5" y="12" font-size="3.5" font-family="monospace">TGS</text><path fill="url(#gf)" d="M18,8c0,0-3,3-3,6a3,3,0,0,0,6,0C21,11,18,8,18,8z"/><path fill="#FFE040" opacity="0.8" d="M18,11c0,0-1.5,1.5-1.5,3a1.5,1.5,0,0,0,3,0C19.5,12.5,18,11,18,11z"/></svg>
