<svg xmlns="http://www.w3.org/2000/svg" viewBox="0 0 24 24"><defs><radialGradient id="g" cx="35%" cy="28%" r="65%"><stop offset="0%" stop-color="#FFE040"/><stop offset="100%" stop-color="#CC8800"/></radialGradient></defs><path fill="url(#g)" d="M2,18h20V8c0-4-4-6-10-6S2,4,2,8z"/><path fill="white" opacity="0.25" d="M2,8c0-4,4-6,10-6s10,2,10,6H2z"/><path fill="#AA7700" d="M6,18V10c0-2,2.5-4,6-4s6,2,6,4v8z"/><path fill="white" opacity="0.15" d="M6,10c0-2,2.5-4,6-4s6,2,6,4H6z"/><polygon fill="#FF3030" points="10,15 14,12 14,18"/></svg>
