<svg xmlns="http://www.w3.org/2000/svg" viewBox="0 0 24 24"><defs><radialGradient id="g" cx="35%" cy="28%" r="65%"><stop offset="0%" stop-color="#FF7070"/><stop offset="100%" stop-color="#AA0000"/></radialGradient></defs><path fill="url(#g)" d="M5,1H15l5,5V22a1,1,0,0,1-1,1H5a1,1,0,0,1-1-1V2A1,1,0,0,1,5,1z"/><polygon fill="white" opacity="0.4" points="15,1 20,6 15,6"/><rect x="4.5" y="1.5" width="10" height="3" rx="1" fill="white" opacity="0.15"/><rect fill="white" opacity="0.3" x="6" y="8" width="8" height="1.5" rx="0.5"/><rect fill="white" opacity="0.3" x="6" y="11" width="10" height="1.5" rx="0.5"/><rect fill="white" opacity="0.3" x="6" y="14" width="5" height="1.5" rx="0.5"/><polygon fill="#FFE040" points="15,14 18,10 18,18"/></svg>
